<svg width="18" height="18" viewBox="0 0 18 18" fill="none" xmlns="http://www.w3.org/2000/svg">
<path d="M9.5625 2.25C9.5625 2.10082 9.50324 1.95774 9.39775 1.85225C9.29226 1.74676 9.14918 1.6875 9 1.6875C8.85082 1.6875 8.70774 1.74676 8.60225 1.85225C8.49676 1.95774 8.4375 2.10082 8.4375 2.25V3.75C8.4375 3.89918 8.49676 4.04226 8.60225 4.14775C8.70774 4.25324 8.85082 4.3125 9 4.3125C9.14918 4.3125 9.29226 4.25324 9.39775 4.14775C9.50324 4.04226 9.5625 3.89918 9.5625 3.75V2.25Z" fill="#646464"/>
<path fill-rule="evenodd" clip-rule="evenodd" d="M17.0627 9.04272C17.0627 10.4205 17.0627 11.5125 16.948 12.3667C16.8295 13.2457 16.5805 13.9575 16.0195 14.5192C15.4577 15.0802 14.746 15.3292 13.867 15.4477C13.012 15.5625 11.9207 15.5625 10.5422 15.5625H7.45823C6.08048 15.5625 4.98848 15.5625 4.13423 15.4477C3.25523 15.3292 2.54348 15.0802 1.98173 14.5192C1.42073 13.9575 1.17173 13.2457 1.05323 12.3667C0.938477 11.5117 0.938477 10.4205 0.938477 9.04197V8.34747C0.938977 8.05997 0.940976 7.78597 0.944476 7.52547C0.954976 6.79422 0.981977 6.16797 1.05323 5.63322C1.17173 4.75422 1.42073 4.04247 1.98173 3.48072C2.54348 2.91972 3.25523 2.67072 4.13423 2.55222C4.67123 2.48022 5.30273 2.45322 6.03998 2.44347L6.56273 2.43972C6.66122 2.43962 6.75876 2.45892 6.8498 2.49652C6.94083 2.53412 7.02356 2.58929 7.09328 2.65886C7.16299 2.72843 7.21832 2.81106 7.2561 2.90201C7.29388 2.99297 7.31338 3.09048 7.31348 3.18897V3.74997C7.31348 4.19752 7.49127 4.62674 7.80773 4.94321C8.1242 5.25968 8.55342 5.43747 9.00098 5.43747C9.44853 5.43747 9.87775 5.25968 10.1942 4.94321C10.5107 4.62674 10.6885 4.19752 10.6885 3.74997V3.18747C10.6885 2.77347 11.0245 2.43747 11.4385 2.43897C12.406 2.44347 13.2077 2.46372 13.8677 2.55222C14.7467 2.67072 15.4585 2.91972 16.0202 3.48072C16.5812 4.04247 16.8302 4.75422 16.9487 5.63322C17.0635 6.48822 17.0635 7.57947 17.0635 8.95797L17.0627 9.04272ZM6.00023 7.31247C5.85104 7.31247 5.70797 7.37173 5.60248 7.47722C5.49699 7.58271 5.43773 7.72579 5.43773 7.87497C5.43773 8.02415 5.49699 8.16723 5.60248 8.27272C5.70797 8.37821 5.85104 8.43747 6.00023 8.43747H12.0002C12.1494 8.43747 12.2925 8.37821 12.398 8.27272C12.5035 8.16723 12.5627 8.02415 12.5627 7.87497C12.5627 7.72579 12.5035 7.58271 12.398 7.47722C12.2925 7.37173 12.1494 7.31247 12.0002 7.31247H6.00023ZM6.00023 9.93747C5.85104 9.93747 5.70797 9.99673 5.60248 10.1022C5.49699 10.2077 5.43773 10.3508 5.43773 10.5C5.43773 10.6492 5.49699 10.7922 5.60248 10.8977C5.70797 11.0032 5.85104 11.0625 6.00023 11.0625H10.1252C10.2744 11.0625 10.4175 11.0032 10.523 10.8977C10.6285 10.7922 10.6877 10.6492 10.6877 10.5C10.6877 10.3508 10.6285 10.2077 10.523 10.1022C10.4175 9.99673 10.2744 9.93747 10.1252 9.93747H6.00023Z" fill="#646464"/>
</svg>
